<?xml version="1.0" encoding="utf-8"?>
<!-- Generator: Adobe Illustrator 26.0.2, SVG Export Plug-In . SVG Version: 6.00 Build 0)  -->
<svg version="1.1" id="Layer_1" xmlns="http://www.w3.org/2000/svg" xmlns:xlink="http://www.w3.org/1999/xlink" x="0px" y="0px"
	 viewBox="0 0 172.9 178" style="enable-background:new 0 0 172.9 178;" xml:space="preserve">
<style type="text/css">
	.st0{clip-path:url(#SVGID_00000033349536549347910540000015020285734657189041_);}
	.st1{fill:#EB9938;}
	.st2{clip-path:url(#SVGID_00000142873570608475828610000017818030111446457994_);}
	.st3{fill:#EB6638;}
	.st4{clip-path:url(#SVGID_00000067204876208614411810000005005252569017028274_);}
	.st5{fill:#033631;}
</style>
<g id="Group_18" transform="translate(15.453 72.31)">
	<g>
		<defs>
			<rect id="SVGID_1_" x="15.5" y="23.2" width="56.9" height="73"/>
		</defs>
		<clipPath id="SVGID_00000180336680498373434110000000532834494297216914_">
			<use xlink:href="#SVGID_1_"  style="overflow:visible;"/>
		</clipPath>
		<g id="Group_17" style="clip-path:url(#SVGID_00000180336680498373434110000000532834494297216914_);">
			<path id="Path_38" class="st1" d="M66,64.9c-2.1,0.2-4.2,0.3-6.3,0.6c-3,0.4-5.5,2.2-6.9,4.9c-1,1.9-1.8,3.8-2.5,5.8
				c-1.9,5.2-3.1,10.6-4.5,15.9c-0.2,0.7-0.2,1.5-0.4,2.2c0,0.3-0.1,0.6-0.2,0.9c-0.3,0.7-1,1.1-1.7,1c-0.7-0.1-1.3-0.7-1.3-1.5
				c-0.1-0.5,0-0.9,0-1.4c0.2-1.8,0.2-3.6,0-5.3c-0.3-3.5-1-6.9-2-10.3c-1.3-4-3.6-7.5-6.8-10.2c-1.7-1.4-3.4-2.7-5.1-4.1
				c-2.7-2-5.6-3.6-8.8-4.7c-0.5-0.2-1.1-0.2-1.6-0.4c-0.4-0.1-0.8-0.2-1.2-0.4c-0.8-0.3-1.2-1.2-1-2c0.2-0.8,1-1.3,1.8-1.1
				c0.7,0.1,1.3,0.2,1.9,0.4c3.6,1.1,7.2,0.9,10.9,0.5c1.3-0.1,2.7-0.3,4-0.5c2.9-0.6,5.4-2.5,6.8-5.2c1.1-2.2,1.9-4.5,2.4-6.9
				c0.9-3.8,2.1-7.5,2.5-11.3c0.2-2,0.5-3.9,0.8-5.9c0.1-0.5,0.1-1,0.3-1.6c0.2-0.5,0.8-0.9,1.3-1c0.6-0.1,1.2,0.3,1.4,1
				c0.3,0.7,0.4,1.5,0.5,2.2c0.2,3.5,0.5,7.1,0.7,10.6c0.2,3.2,0.4,6.5,0.7,9.7c0.3,2.6,1.2,5.1,2.7,7.3c1.3,1.9,3.2,3.4,5.4,4.2
				c1.4,0.6,2.8,1.2,4.3,1.7c0.8,0.2,1.6,0.4,2.4,0.6c1.6,0.4,3.2,0.7,4.8,1.1c0.7,0.1,1.2,0.8,1.2,1.5c0.1,0.8-0.4,1.5-1.1,1.7
				c-0.5,0.2-1.1,0.3-1.7,0.3c-1.2,0-2.5,0-3.8,0C65.9,65.1,66,65,66,64.9"/>
		</g>
	</g>
</g>
<g id="Group_19" transform="translate(0 0)">
	<g>
		<defs>
			<rect id="SVGID_00000048477579579882710980000007670839284098597812_" x="15.5" y="23.2" width="30.9" height="39.6"/>
		</defs>
		<clipPath id="SVGID_00000172405142948307116840000001416453868787709611_">
			<use xlink:href="#SVGID_00000048477579579882710980000007670839284098597812_"  style="overflow:visible;"/>
		</clipPath>
		
			<g id="Group_17-2" transform="translate(0 0)" style="clip-path:url(#SVGID_00000172405142948307116840000001416453868787709611_);">
			<path id="Path_38-2" class="st3" d="M42.9,45.8c-1.1,0.1-2.3,0.2-3.4,0.3c-1.6,0.2-3,1.2-3.7,2.6c-0.5,1-1,2.1-1.4,3.1
				c-1,2.8-1.7,5.8-2.5,8.6c-0.1,0.4-0.1,0.8-0.2,1.2c0,0.2-0.1,0.3-0.1,0.5c-0.1,0.4-0.5,0.6-0.9,0.5C30.3,62.7,30,62.4,30,62
				c0-0.2,0-0.5,0-0.8c0.1-1,0.1-1.9,0-2.9c-0.2-1.9-0.5-3.8-1.1-5.6c-0.7-2.1-2-4.1-3.7-5.5c-0.9-0.8-1.9-1.5-2.8-2.2
				c-1.5-1.1-3.1-1.9-4.8-2.6c-0.3-0.1-0.6-0.1-0.9-0.2c-0.2,0-0.4-0.1-0.7-0.2c-0.4-0.2-0.6-0.6-0.5-1.1c0.1-0.4,0.5-0.7,1-0.6
				c0.4,0,0.7,0.1,1,0.2c1.9,0.5,3.9,0.6,5.9,0.3c0.7,0,1.5-0.1,2.2-0.3c1.6-0.3,3-1.4,3.7-2.8c0.6-1.2,1-2.5,1.3-3.8
				c0.6-2,1-4.1,1.4-6.2c0.1-1.1,0.3-2.1,0.4-3.2c0.1-0.3,0.1-0.6,0.2-0.9c0.1-0.3,0.4-0.5,0.7-0.5c0.3,0,0.7,0.2,0.8,0.5
				c0.1,0.4,0.2,0.8,0.3,1.2c0.1,1.9,0.3,3.8,0.4,5.8c0.1,1.8,0.2,3.5,0.4,5.3c0.2,1.4,0.7,2.8,1.5,4c0.7,1.1,1.7,1.9,2.9,2.3
				c0.8,0.3,1.5,0.6,2.3,0.9c0.4,0.1,0.9,0.2,1.3,0.3c0.9,0.2,1.7,0.4,2.6,0.6c0.4,0.1,0.7,0.4,0.7,0.8c0,0.4-0.2,0.8-0.6,0.9
				c-0.3,0.1-0.6,0.2-0.9,0.2c-0.7,0-1.4,0-2.1,0C42.9,45.9,42.9,45.9,42.9,45.8"/>
		</g>
	</g>
</g>
<g id="Group_20" transform="translate(111.531 69.175)">
	<g>
		<defs>
			<rect id="SVGID_00000039847704583947844740000013094871711581582731_" x="15.5" y="23.2" width="30.9" height="39.6"/>
		</defs>
		<clipPath id="SVGID_00000063617170258047419180000007668877800715767694_">
			<use xlink:href="#SVGID_00000039847704583947844740000013094871711581582731_"  style="overflow:visible;"/>
		</clipPath>
		
			<g id="Group_17-3" transform="translate(0 0)" style="clip-path:url(#SVGID_00000063617170258047419180000007668877800715767694_);">
			<path id="Path_38-3" class="st5" d="M42.9,45.8c-1.1,0.1-2.3,0.2-3.4,0.3c-1.6,0.2-3,1.2-3.7,2.6c-0.5,1-1,2.1-1.4,3.1
				c-1,2.8-1.7,5.8-2.5,8.6c-0.1,0.4-0.1,0.8-0.2,1.2c0,0.2-0.1,0.3-0.1,0.5c-0.1,0.4-0.5,0.6-0.9,0.5C30.3,62.7,30,62.4,30,62
				c0-0.2,0-0.5,0-0.8c0.1-1,0.1-1.9,0-2.9c-0.2-1.9-0.5-3.8-1.1-5.6c-0.7-2.1-2-4.1-3.7-5.5c-0.9-0.8-1.9-1.5-2.8-2.2
				c-1.5-1.1-3.1-1.9-4.8-2.6c-0.3-0.1-0.6-0.1-0.9-0.2c-0.2,0-0.4-0.1-0.7-0.2c-0.4-0.2-0.6-0.6-0.5-1.1c0.1-0.4,0.5-0.7,1-0.6
				c0.4,0,0.7,0.1,1,0.2c1.9,0.5,3.9,0.6,5.9,0.3c0.7,0,1.5-0.1,2.2-0.3c1.6-0.3,3-1.4,3.7-2.8c0.6-1.2,1-2.5,1.3-3.8
				c0.6-2,1-4.1,1.4-6.2c0.1-1.1,0.3-2.1,0.4-3.2c0.1-0.3,0.1-0.6,0.2-0.9c0.1-0.3,0.4-0.5,0.7-0.5c0.3,0,0.7,0.2,0.8,0.5
				c0.1,0.4,0.2,0.8,0.3,1.2c0.1,1.9,0.3,3.8,0.4,5.8c0.1,1.8,0.2,3.5,0.4,5.3c0.2,1.4,0.7,2.8,1.5,4c0.7,1.1,1.7,1.9,2.9,2.3
				c0.8,0.3,1.5,0.6,2.3,0.9c0.4,0.1,0.9,0.2,1.3,0.3c0.9,0.2,1.7,0.4,2.6,0.6c0.4,0.1,0.7,0.4,0.7,0.8c0,0.4-0.2,0.8-0.6,0.9
				c-0.3,0.1-0.6,0.2-0.9,0.2c-0.7,0-1.4,0-2.1,0C42.9,45.9,42.9,45.9,42.9,45.8"/>
		</g>
	</g>
</g>
</svg>
